<?xml version="1.0" encoding="UTF-8"?>
<svg width="1446px" height="448px" viewBox="0 0 1446 448" version="1.1" xmlns="http://www.w3.org/2000/svg" xmlns:xlink="http://www.w3.org/1999/xlink">
    <title>9F1B4AD9-0FDD-4EB9-904F-7E9245F79F63</title>
    <defs>
        <rect id="path-1" x="0" y="0" width="1440" height="440.644217" rx="1"></rect>
        <filter x="-0.3%" y="-0.9%" width="100.7%" height="102.3%" filterUnits="objectBoundingBox" id="filter-3">
            <feOffset dx="0" dy="1" in="SourceAlpha" result="shadowOffsetOuter1"></feOffset>
            <feGaussianBlur stdDeviation="1.5" in="shadowOffsetOuter1" result="shadowBlurOuter1"></feGaussianBlur>
            <feColorMatrix values="0 0 0 0 0.196078431   0 0 0 0 0.270588235   0 0 0 0 0.258823529  0 0 0 0.0676628059 0" type="matrix" in="shadowBlurOuter1"></feColorMatrix>
        </filter>
        <linearGradient x1="50%" y1="96.5446106%" x2="50%" y2="7.05549296%" id="linearGradient-4">
            <stop stop-color="#CEEAE4" offset="0%"></stop>
            <stop stop-color="#85B9AE" offset="100%"></stop>
        </linearGradient>
        <linearGradient x1="50%" y1="96.5446106%" x2="50%" y2="7.05549296%" id="linearGradient-5">
            <stop stop-color="#CEEAE4" offset="0%"></stop>
            <stop stop-color="#85B9AE" offset="100%"></stop>
        </linearGradient>
    </defs>
    <g id="ðŸŒ-Web-view" stroke="none" stroke-width="1" fill="none" fill-rule="evenodd">
        <g id="CR---Details---web" transform="translate(3.000000, 78.000000)">
            <g id="Components-/-Input-/-Default-/-M-/-Default-Copy-6" transform="translate(0.000000, -76.000000)">
                <g id="Image-1" transform="translate(0.000000, 0.677892)">
                    <mask id="mask-2" fill="white">
                        <use xlink:href="#path-1"></use>
                    </mask>
                    <g id="Mask">
                        <use fill="black" fill-opacity="1" filter="url(#filter-3)" xlink:href="#path-1"></use>
                        <use fill="#0B7573" fill-rule="evenodd" xlink:href="#path-1"></use>
                    </g>
                    <path d="M1958.653,394.712952 L1718.09204,394.712952 C1684.40267,394.712952 1657.09204,367.402322 1657.09204,333.712952 L1657.09204,-144.217046 C1657.09204,-160.486543 1647.90972,-175.362846 1633.36617,-182.655413 L994.025708,-503.239515 C972.796785,-513.884321 946.958021,-505.304199 936.313215,-484.075275 C933.313559,-478.093065 931.751581,-471.493291 931.751581,-464.801148 L931.751581,219.556731 C931.751581,253.246101 904.440951,280.556731 870.751581,280.556731 L590.33675,280.556731 L590.33675,280.556731 L590.33675,372.2694 C590.33675,427.497875 635.108275,472.2694 690.33675,472.2694 L1881.09655,472.2694 C1923.9298,472.2694 1958.653,437.546196 1958.653,394.712952 L1958.653,394.712952 L1958.653,394.712952 Z" id="Path-Copy-3" stroke="#1C5E5C" opacity="0.648869981" stroke-dasharray="5,10" mask="url(#mask-2)" transform="translate(1274.494876, -31.098097) scale(-1, -1) translate(-1274.494876, 31.098097) "></path>
                    <path d="M1979.73646,389.442089 L1739.1755,389.442089 C1705.48613,389.442089 1678.1755,362.131458 1678.1755,328.442089 L1678.1755,-149.48791 C1678.1755,-165.757407 1668.99318,-180.63371 1654.44962,-187.926276 L1015.10916,-508.510379 C993.88024,-519.155185 968.041477,-510.575063 957.39667,-489.346139 C954.397014,-483.363929 952.835037,-476.764155 952.835037,-470.072012 L952.835037,214.285867 C952.835037,247.975237 925.524406,275.285867 891.835037,275.285867 L611.420205,275.285867 L611.420205,275.285867 L611.420205,366.998536 C611.420205,422.227011 656.19173,466.998536 711.420205,466.998536 L1902.18001,466.998536 C1945.01325,466.998536 1979.73646,432.275332 1979.73646,389.442089 L1979.73646,389.442089 L1979.73646,389.442089 Z" id="Path-Copy-6" stroke="#1C5E5C" opacity="0.648869981" stroke-dasharray="5,10" mask="url(#mask-2)" transform="translate(1295.578331, -36.368960) scale(-1, -1) translate(-1295.578331, 36.368960) "></path>
                    <path d="M822.254758,384.171225 L581.693798,384.171225 C548.004428,384.171225 520.693798,356.860595 520.693798,323.171225 L520.693798,-154.758774 C520.693798,-171.028271 511.511481,-185.904574 496.967925,-193.19714 L-142.372535,-513.781243 C-163.601458,-524.426049 -189.440222,-515.845927 -200.085028,-494.617003 C-203.084684,-488.634793 -204.646662,-482.035019 -204.646662,-475.342876 L-204.646662,209.015003 C-204.646662,242.704373 -231.957292,270.015003 -265.646662,270.015003 L-546.061493,270.015003 L-546.061493,270.015003 L-546.061493,361.727672 C-546.061493,416.956147 -501.289968,461.727672 -446.061493,461.727672 L744.698311,461.727672 C787.531554,461.727672 822.254758,427.004468 822.254758,384.171225 L822.254758,384.171225 L822.254758,384.171225 Z" id="Path-Copy-4" stroke="#1C5E5C" opacity="0.648869981" stroke-dasharray="5,10" mask="url(#mask-2)" transform="translate(138.096633, -41.639824) scale(1, -1) translate(-138.096633, 41.639824) "></path>
                    <path d="M833.850659,405.25468 L593.289699,405.25468 C559.600329,405.25468 532.289699,377.94405 532.289699,344.25468 L532.289699,-98.492378 C532.289699,-136.328417 510.935472,-170.924472 477.11325,-187.883928 L-130.776634,-492.697787 C-152.005558,-503.342594 -177.844321,-494.762471 -188.489128,-473.533548 C-191.488784,-467.551337 -193.050761,-460.951563 -193.050761,-454.259421 L-193.050761,230.098459 C-193.050761,263.787829 -220.361391,291.098459 -254.050761,291.098459 L-534.465593,291.098459 L-534.465593,291.098459 L-534.465593,382.811127 C-534.465593,438.039602 -489.694068,482.811127 -434.465593,482.811127 L756.294212,482.811127 C799.127455,482.811127 833.850659,448.087923 833.850659,405.25468 L833.850659,405.25468 L833.850659,405.25468 Z" id="Path-Copy-5" stroke="#1C5E5C" opacity="0.648869981" stroke-dasharray="5,10" mask="url(#mask-2)" transform="translate(149.692533, -20.556369) scale(1, -1) translate(-149.692533, 20.556369) "></path>
                    <path d="M1018.33089,849.061415 L777.769933,849.061415 C744.080563,849.061415 716.769933,821.750785 716.769933,788.061415 L716.769933,310.131417 C716.769933,293.86192 707.587615,278.985616 693.04406,271.69305 L53.7036001,-48.8910522 C32.4746764,-59.5358587 6.6359129,-50.9557364 -4.00889354,-29.7268127 C-7.00854959,-23.7446025 -8.57052694,-17.1448284 -8.57052694,-10.4526856 L-8.57052694,673.905194 C-8.57052694,707.594564 -35.8811572,734.905194 -69.5705269,734.905194 L-349.985359,734.905194 L-349.985359,734.905194 L-349.985359,826.617862 C-349.985359,881.846337 -305.213834,926.617862 -249.985359,926.617862 L940.774446,926.617862 C983.607689,926.617862 1018.33089,891.894658 1018.33089,849.061415 L1018.33089,849.061415 L1018.33089,849.061415 Z" id="Path-Copy" fill="url(#linearGradient-4)" opacity="0.0782877604" mask="url(#mask-2)"></path>
                    <path d="M1740.17054,1060.91247 L1401.10276,1060.91247 C1367.41339,1060.91247 1340.10276,1033.60184 1340.10276,999.912475 L1340.10276,337.241639 C1340.10276,320.972353 1330.92068,306.096205 1316.37741,298.803535 L440.099854,-140.602757 C418.871075,-151.247853 393.032195,-142.668083 382.387099,-121.439305 C379.387272,-115.456958 377.825202,-108.856994 377.825202,-102.164653 L377.825202,848.461236 C377.825202,882.150606 350.514572,909.461236 316.825202,909.461236 L-75.1149674,909.461236 L-75.1149674,909.461236 L-75.1149674,1063.80673 C-75.1149674,1119.03521 -30.3434424,1163.80673 24.8850326,1163.80673 L1640.17054,1163.80673 C1695.39901,1163.80673 1740.17054,1119.03521 1740.17054,1063.80673 L1740.17054,1060.91247 L1740.17054,1060.91247 Z" id="Path-Copy-7" fill="url(#linearGradient-5)" opacity="0.0948660714" mask="url(#mask-2)" transform="translate(832.527785, 495.988287) rotate(20.000000) translate(-832.527785, -495.988287) "></path>
                    <path d="M1947.0571,382.062879 L1706.49614,382.062879 C1672.80677,382.062879 1645.49614,354.752249 1645.49614,321.062879 L1645.49614,-156.867119 C1645.49614,-173.136616 1636.31382,-188.012919 1621.77027,-195.305486 L982.429808,-515.889588 C961.200884,-526.534395 935.362121,-517.954272 924.717314,-496.725349 C921.717658,-490.743138 920.155681,-484.143364 920.155681,-477.451221 L920.155681,206.906658 C920.155681,240.596028 892.845051,267.906658 859.155681,267.906658 L578.740849,267.906658 L578.740849,267.906658 L578.740849,359.619327 C578.740849,414.847801 623.512374,459.619327 678.740849,459.619327 L1869.50065,459.619327 C1912.3339,459.619327 1947.0571,424.896122 1947.0571,382.062879 L1947.0571,382.062879 L1947.0571,382.062879 Z" id="Path-Copy-2" fill="url(#linearGradient-4)" opacity="0.119652158" mask="url(#mask-2)" transform="translate(1262.898975, -43.748170) scale(-1, -1) translate(-1262.898975, 43.748170) "></path>
                    <path d="M875.316244,155.368635 L875.316244,157.483593 L877.361242,157.483593 C885.148601,158.95674 890.348887,166.624221 889.036752,174.698368 L889.036752,175.903402 L890.059251,175.903402 C895.719801,179.310706 900.08936,184.610391 902.448132,190.92944 L903.185282,191.224551 C903.721569,193.530051 903.353977,195.961353 902.162783,197.987498 C899.342884,198.138166 896.517344,198.138166 893.697444,197.987498 C888.551213,198.724553 883.328648,197.376448 879.120891,194.22484 C870.519115,191.363361 862.504885,186.877285 855.484523,180.994056 L854.462024,180.084133 L853.296851,180.084133 C850.625369,181.471218 847.678089,182.195354 844.688838,182.199091 C838.702065,181.873562 833.018242,179.374209 828.637984,175.141033 L827.187462,173.935999 L825.879615,175.583699 C824.903108,176.540855 823.767194,177.307374 822.52677,177.846212 L818.722123,177.846212 C813.440089,177.404822 808.386601,175.426816 804.14557,172.140744 L802.243247,170.788154 L801.363422,173.050668 C797.620042,178.449817 791.206681,181.139294 784.884546,179.96117 C782.651678,180.111467 780.411724,180.111467 778.178856,179.96117 C766.700062,175.452376 754.962491,171.682514 743.033431,168.673196 L737.920937,167.763273 C742.677397,165.719235 747.544409,163.962021 752.49749,162.50047 C760.820155,160.041217 767.953868,158.442702 767.953868,158.442702 C775.68196,155.167081 781.319611,148.118796 782.982223,139.654005 C787.248783,139.789191 791.473928,138.754042 795.228429,136.653716 L796.108254,136.653716 C801.429453,134.497251 807.047686,133.227256 812.753584,132.891058 C815.090228,132.586043 817.438307,133.359536 819.173925,135.006016 C820.164423,136.264425 820.541369,137.923514 820.196424,139.50645 L820.196424,142.826442 L823.121246,141.621408 C829.678329,138.767335 836.611331,136.943704 843.690118,136.21105 C845.550793,135.886379 847.449676,136.498368 848.802612,137.85875 C849.385524,139.195708 849.385524,140.727116 848.802612,142.064074 L848.065462,145.211918 L850.990284,145.211918 C853.756857,144.910612 856.546376,144.910612 859.312949,145.211918 C864.555867,144.350014 869.897778,145.945225 873.889502,149.564797 C875.186702,151.178075 875.710911,153.310506 875.316244,155.368635 L875.316244,155.368635 Z M834.895297,242.309619 C825.186567,241.33435 817.027259,234.515931 814.252848,225.059519 L813.083507,222.984682 L811.317563,224.311613 C810.344647,224.460099 809.355195,224.460099 808.382279,224.311613 C805.14784,224.065422 802.142962,222.529134 800.029843,220.041308 L798.430948,218.424865 C796.121253,215.768436 794.060121,212.901256 792.274009,209.860131 L790.818299,207.206269 L789.935327,208.677956 L789.935327,209.860131 C788.430181,211.579234 786.207549,212.474463 783.945438,212.272732 C778.008579,211.658227 772.393861,209.244731 767.837168,205.348566 C758.706929,194.89407 748.926674,185.038709 738.555914,175.842451 L732.995578,173.18859 L729.487555,170.775988 L732.112606,170.775988 C746.623329,173.449901 760.84189,177.546544 774.566845,183.007877 C777.054528,183.155434 779.548627,183.155434 782.036309,183.007877 C789.10899,183.767655 796.117347,181.080446 800.912815,175.770073 C805.223764,178.845698 810.279873,180.680204 815.54151,181.077796 L816.710851,181.077796 C816.857198,182.004802 816.857198,182.949408 816.710851,183.876414 L815.827879,186.675031 L818.45293,186.675031 C826.911199,185.945941 835.315362,188.596194 841.863615,194.057592 C842.886983,196.148142 842.886983,198.601695 841.863615,200.692245 L840.837459,202.911839 L843.032956,202.911839 C850.654361,205.24989 857.293253,210.077941 861.909461,216.63954 C863.322608,219.474294 863.587962,222.754066 862.649249,225.7833 L862.649249,227.399743 L863.245851,227.689255 C870.696574,234.025589 873.490331,244.362577 870.261897,253.648845 L870.261897,254.541508 L870.118713,255.120532 C870.118713,255.120532 883.148513,274.879738 875.965418,284.626647 C867.812922,282.252661 860.759459,277.028482 856.062756,269.885653 C848.490319,262.133217 842.168896,253.226801 837.329436,243.491794 L837.329436,242.164863 L834.895297,242.309619 Z M813.78268,273.060217 C816.879556,278.827225 815.290398,285.936066 810.015097,289.913883 L808.956234,290.66026 L808.956234,291.984476 C810.081373,297.425195 809.506512,303.071032 807.306378,308.188073 C806.234744,309.536254 804.75089,310.51472 803.070925,310.980966 C797.59468,306.243429 793.742932,299.972329 792.039048,293.019773 L792.039048,292.03263 C788.744656,284.396802 786.90053,276.238057 786.596983,267.955963 L786.596983,266.631747 L785.53812,266.631747 C778.120832,262.701451 773.832813,254.809531 774.653992,246.59996 L774.653992,246.02212 L772.831762,246.02212 C772.388517,246.02212 764.213108,245.58874 762.267755,229.168453 L762.267755,226.760787 L760.150028,226.760787 C760.150028,226.760787 753.058108,228.373923 743.528339,213.66308 C739.341188,201.842101 734.296728,190.328296 728.433382,179.20937 C740.333158,189.062384 751.492351,199.73987 761.82451,211.159107 C767.239801,215.428061 773.79566,218.08564 780.711674,218.815487 C783.381904,218.853738 785.986381,218.004901 788.099092,216.40782 C789.629898,218.791875 791.350764,221.054081 793.245659,223.173364 L792.334544,223.173364 L789.625825,225.07542 L792.506918,226.833017 C799.707061,230.095986 805.565541,235.64587 809.128607,242.579157 C808.886367,243.729299 808.015226,244.655116 806.863132,244.986823 L804.154413,246.31104 L806.419887,248.381633 C811.869065,252.815687 815.59788,258.943053 816.983895,265.74091 L816.983895,265.88537 C816.767356,267.566972 815.88282,269.097755 814.521422,270.14694 L812.871565,271.182237 L813.78268,273.060217 Z M629.803004,289.808109 C624.167821,285.818847 622.593516,278.299647 626.175098,272.480493 L627.236322,270.726102 L625.730865,269.692693 C624.21581,268.743757 623.219038,267.181901 623.016105,265.438896 C624.40521,258.653437 628.142339,252.537246 633.603667,248.111279 L635.874193,246.044462 L632.986676,244.722661 C631.862357,244.345262 631.008832,243.441835 630.71615,242.319385 C634.345256,235.389795 640.265952,229.852874 647.522978,226.601963 L650.237737,224.847572 L647.769774,222.948985 L647.004706,222.948985 C648.510163,221.050397 650.188378,218.839383 651.940632,216.19578 C654.058053,217.789949 656.668337,218.637237 659.344521,218.599056 C666.157586,217.889799 672.61729,215.286879 677.952962,211.100836 C688.398677,199.737379 699.629374,189.082085 711.566618,179.20937 C705.600184,190.266502 700.541528,201.76601 696.438005,213.600243 C686.911667,228.885075 679.631177,226.674062 679.631177,226.674062 L677.508728,225.929046 L677.508728,228.332322 C675.682436,245.15525 667.069245,245.15525 667.069245,245.15525 L665.094875,245.15525 L665.094875,247.558526 C665.844986,255.738917 661.567408,263.579782 654.186478,267.553778 L653.125254,267.553778 L653.125254,269.019776 C652.607418,277.273375 650.715321,285.390132 647.522978,293.052531 C645.877115,300.016854 642.006168,306.293721 636.466504,310.980966 C634.780111,310.606859 633.310228,309.606634 632.369685,308.193167 C630.087923,303.104697 629.50939,297.445786 630.71615,292.019123 L630.71615,290.697321 L629.803004,289.808109 Z M582.625188,228.188672 L583.829346,227.309057 L583.829346,225.716241 C582.625316,222.825803 582.625316,219.596573 583.829346,216.706135 C588.585157,210.149535 595.526206,205.373683 603.489063,203.179089 L605.602483,203.179089 L604.545773,200.991939 C603.491934,198.931945 603.491934,196.514256 604.545773,194.454263 C611.351884,189.064869 620.062028,186.455153 628.825524,187.179612 L631.528735,187.179612 L630.766921,184.421901 C630.617041,183.508382 630.617041,182.57771 630.766921,181.664191 L631.823631,181.664191 C637.25664,181.340398 642.48192,179.52624 646.887889,176.43405 C651.826139,181.666802 659.043168,184.314732 666.326435,183.56606 C668.888185,183.711515 671.456549,183.711515 674.018299,183.56606 C688.152009,178.184841 702.793893,174.148086 717.736595,171.512963 L718.178939,170.775988 L721.054173,170.775988 L716.139243,173.676339 L710.560799,177.884225 C699.844917,186.908403 689.770984,196.622096 680.407707,206.959054 C675.715341,210.798269 669.933447,213.176488 663.819821,213.782011 C661.54828,213.889597 659.343971,213.019216 657.799032,211.404674 L657.037218,210.239779 L656.127956,208.646963 L654.481455,211.404674 C652.649948,214.365335 650.5879,217.186684 648.313219,219.84422 L646.666717,221.437035 C644.490681,223.888497 641.396334,225.402329 638.065591,225.644921 C637.059929,225.626053 636.073739,225.373275 635.190357,224.907947 L633.224386,223.457772 L632.167676,225.644921 C629.434895,234.717025 621.484426,241.414345 611.819868,242.78552 L609.362404,242.78552 L609.362404,244.093055 C604.236738,253.601894 597.741566,262.35862 590.071306,270.101119 C585.173227,277.143463 577.862955,282.287438 569.428603,284.626647 C561.884186,275.1173 575.449391,255.551818 575.449391,255.551818 L575.449391,253.816362 C572.084981,244.666633 574.933722,234.457658 582.600613,228.188672 L582.625188,228.188672 Z M662.810292,474.948168 L714.715554,474.948168 L703.678089,427.32294 L712.187148,418.881495 L701.149683,375.851896 L709.950481,371.570705 L698.329537,324.40504 L708.759213,317.003659 L699.666675,276.779812 L709.950481,271.168308 L703.38635,235.370777 L712.041279,229.759273 L710.704141,191.05924 C713.090274,183.693713 717.353635,177.068814 723.078744,171.830161 C728.93247,177.00939 733.217947,183.710539 735.453348,191.180177 L734.11621,229.88021 L742.625269,235.34659 L736.061138,271.14412 L746.490813,276.755625 L737.252406,316.979471 L747.682082,324.380853 L736.352877,371.546518 L745.153675,375.827709 L733.97034,418.857308 L742.4794,427.298752 L732.924941,474.778855 L783.979298,474.778855 L785.024697,475.673793 C788.357568,476.782273 790.251685,480.275918 789.352161,483.655675 C780.537541,495.088241 769.970692,505.070617 758.038822,513.237013 C756.433136,508.923229 755.236653,504.469441 754.465018,499.933876 C753.419619,498.603563 742.309218,510.576385 737.00929,513.382138 C733.029809,509.127559 728.519914,505.396621 723.589288,502.280066 C715.688018,507.31107 707.033089,513.382138 707.033089,513.382138 C701.951965,510.72151 694.050696,498.869625 693.175478,500.224126 C692.252295,504.708288 690.959409,509.109173 689.309934,513.382138 C677.41297,504.988071 666.940442,494.756796 658.288335,483.075174 C655.954421,477.899045 662.810292,474.948168 662.810292,474.948168 L662.810292,474.948168 Z M824.81942,84.3381716 C827.11632,84.2431744 829.190641,85.7124432 829.878356,87.9214818 L830.628725,89.8472064 L832.250489,88.9452848 C833.759105,88.2150848 835.418258,87.8558495 837.091575,87.8971056 C841.848403,88.0764041 846.022334,91.1421781 847.645145,95.6487563 L847.645145,96.8431931 L848.831211,96.8431931 C853.830201,96.4758809 858.775877,98.0749091 862.628308,101.304049 C863.822824,102.638456 864.463881,104.383271 864.41951,106.179301 C859.660393,110.529195 853.89241,113.60537 847.645145,115.125388 L845.224601,115.125388 C839.912294,116.675474 834.416332,117.495437 828.885933,117.563014 L821.019167,117.563014 L821.019167,118.757451 C817.618428,124.341155 811.495325,127.647865 804.99517,127.411023 L799.210071,127.411023 L799.210071,131.140591 C798.762866,132.852715 797.839053,134.400452 796.547473,135.601447 L794.925709,136.942141 C793.523402,137.762066 792.028,138.408645 790.47191,138.867866 L788.704913,138.867866 C786.528946,139.017168 784.345412,139.017168 782.169446,138.867866 L780.547682,138.867866 L780.547682,140.79359 C778.761908,148.164951 773.035251,153.913208 765.709751,155.687485 L766.145448,154.346791 C756.82962,156.385799 747.653098,159.023839 738.672281,162.244699 C735.162586,163.438033 731.741085,164.879829 728.433382,166.559297 C729.764681,164.926088 731.265418,163.122245 732.887182,161.489035 C738.802505,155.453508 745.049244,149.756772 751.597982,144.425653 C757.150505,139.195941 759.854795,131.588648 758.859613,123.998347 C765.10364,121.660333 769.367138,115.80457 769.703647,109.104452 C773.276368,107.676603 776.43816,105.372316 778.901712,102.40098 C780.529653,102.415664 781.909974,103.610088 782.169446,105.228627 L785.582412,106.861836 L787.664079,104.180447 C791.522807,97.6398428 797.274325,92.4431058 804.14798,89.2865524 C804.583678,89.2865524 805.624511,89.2865524 806.568523,92.1141986 L806.568523,95.2343599 L808.989067,93.1380015 C813.295925,88.7192059 818.788854,85.6611022 824.795215,84.3381716 L824.81942,84.3381716 Z M742.718625,95.4788069 L745.121473,97.7287958 L745.866356,94.4271817 C746.316954,87.5511298 749.192587,81.0721222 753.963956,76.1827069 C754.722966,76.341298 755.374027,76.8338125 755.742063,77.5278089 L757.808513,79.973449 L758.841738,76.9897681 C760.696137,71.1748115 764.788583,66.3740955 770.183183,63.6854862 C771.271027,63.682225 772.302908,64.175936 772.994516,65.0305882 L774.460253,66.3756902 L775.637649,64.7371114 C777.266139,62.5044862 779.826065,61.1745882 782.557853,61.1420205 C785.014473,61.1974667 787.369082,62.1526098 789.189715,63.8322246 L790.22294,64.590373 L791.256164,64.590373 C794.104442,62.7970051 797.353995,61.770273 800.699359,61.6066921 C803.096512,61.4100127 805.370179,62.717173 806.442167,64.9083062 C804.326647,70.4677012 800.564641,75.2197667 795.677406,78.5060649 C790.780705,82.9727555 785.142264,86.5170986 779.025665,88.9734044 L777.84827,88.9734044 L777.84827,92.1038236 C777.540651,94.5821852 776.632354,96.9437929 775.205136,98.9760722 C772.827797,102.340393 769.462298,104.849523 765.593742,106.141798 L764.416347,106.141798 L764.416347,108.587438 C764.236495,111.215625 763.075946,113.674307 761.172501,115.459686 C759.126906,117.442971 756.792664,119.09284 754.252297,120.350966 L752.642389,121.109115 L753.675614,123.04117 C755.177721,129.537067 752.889322,136.334389 747.788635,140.527497 C742.531463,144.277029 737.603228,148.482941 733.059174,153.098087 L732.626661,153.538302 L728.20542,158.013823 L724.216691,162.342606 L724.216691,159.896966 C729.022388,143.29107 737.336244,113.234154 740.72426,94.1092485 C741.528991,94.3072707 742.23183,94.8045304 742.694596,95.5032633 L742.718625,95.4788069 Z M705.914658,49.224966 C706.191675,48.7596816 706.690148,48.4756967 707.227395,48.4770862 L708.68334,48.4770862 L710.879191,49.8039697 L710.879191,47.0054517 C712.038758,39.5344942 714.952422,32.4531096 719.376181,26.3543192 C723.842877,32.4439232 726.805208,39.5242594 728.016379,47.0054517 L728.016379,49.8039697 L730.21223,48.4770862 L731.524968,48.4770862 C732.100142,48.4789657 732.64035,48.7564564 732.980913,49.224966 C736.326428,58.6774088 737.149643,68.8538178 735.367708,78.7300304 L735.367708,81.1425459 L736.823653,81.1425459 C736.996122,84.8082351 736.650536,88.4800534 735.797331,92.0471159 C735.652083,93.0712209 735.652083,94.1110307 735.797331,95.1351357 L734.771009,94.9903848 C734.14262,96.6470697 733.748888,98.3851651 733.601479,100.153168 C730.665722,113.73563 725.987603,132.45675 720.569579,151.346747 L720.569579,152.528879 C719.704559,154.28087 719.162656,156.177533 718.970426,158.125915 L717.204198,152.67363 L717.204198,151.491497 C711.929381,132.601501 707.108055,113.880381 704.315505,100.297919 L703.145976,94.9903848 L703.145976,91.902365 C702.298808,88.3342825 701.953304,84.6633351 702.119654,80.997795 L703.432391,80.997795 L703.432391,78.5852795 C701.559992,68.7644922 702.410811,58.6116253 705.89079,49.2490912 L705.914658,49.224966 Z M641.262677,61.608609 C644.579051,61.8485577 647.796218,62.8740225 650.661924,64.6045982 L651.690341,64.6045982 L652.718757,63.8433222 C654.475009,62.1589815 656.773667,61.1974064 659.176255,61.1420205 C661.915573,61.2552398 664.47595,62.5697191 666.207753,64.7519419 L667.379669,66.3972802 L668.838586,65.0466294 C669.520121,64.2955137 670.469762,63.8611609 671.469418,63.8433222 C676.801673,66.5516056 680.826938,71.3764946 682.614581,77.2024871 L683.786498,80.1984763 L685.699831,77.7427475 C686.044308,76.9630337 686.780792,76.4431384 687.613163,76.3920966 C692.297211,81.3325542 695.105231,87.8307219 695.529578,94.7118338 L695.529578,98.0270677 L697.921244,95.7677972 C698.438356,95.119347 699.171141,94.6906465 699.978076,94.5644901 L700.862993,93.9751151 C704.235242,113.203472 712.462573,143.384379 717.150238,159.886877 L717.891654,162.342606 C716.701825,160.823949 715.432364,159.372922 714.088906,157.995966 L709.54474,153.501982 C702.513242,147.190759 696.055744,141.788156 694.883828,140.879536 C689.849307,136.634945 687.534889,129.865487 688.880746,123.321075 L690.052663,121.528393 L687.110914,118.827091 C684.582563,117.563435 682.259233,115.906795 680.222916,113.915633 C678.367209,112.109364 677.262006,109.637421 677.137666,107.015035 L677.137666,104.559306 L675.96575,104.559306 C672.0772,103.338592 668.705424,100.80261 666.399086,97.3640209 C665.11577,95.2731847 664.299018,92.9166371 664.00742,90.4634229 L664.00742,89.0391002 L662.979004,89.0391002 C656.810667,86.6346064 651.133079,83.0701812 646.237342,78.5285807 C641.412069,75.2217559 637.715607,70.4473581 635.666179,64.8747283 C636.686914,62.6978591 638.920252,61.4042816 641.262677,61.6331663 L641.262677,61.608609 Z M585.744398,104.119184 C589.570277,100.955916 594.481867,99.3895061 599.446402,99.7493255 L601.513722,99.7493255 L601.513722,98.5792541 C603.139113,94.1129645 607.35918,91.0969651 612.138785,90.9857291 C613.721969,90.9603959 615.288192,91.3125036 616.70612,92.0125265 L618.484976,92.8960498 L619.374405,91.0096081 C619.963801,88.8737382 621.954072,87.4206009 624.182125,87.4993937 C630.176338,88.8018715 635.68681,91.7372643 640.095681,95.976442 L642.163001,98.0300368 L643.196661,94.9735237 C643.797626,92.0602845 645.408213,92.0602845 645.408213,92.0602845 C652.234493,95.1524475 657.946369,100.243176 661.778502,106.650359 L663.70159,109.27705 L665.023713,106.220537 C665.281397,104.635015 666.652204,103.464956 668.268925,103.450572 C670.675965,106.403068 673.827909,108.668937 677.403594,110.0173 C677.879959,116.529653 682.063701,122.197722 688.172889,124.607374 C687.450531,132.01235 690.095234,139.350842 695.38447,144.617984 C701.888072,149.840354 708.091757,155.420883 713.96631,161.333291 C715.593119,162.848511 717.073916,164.511342 718.389414,166.300124 L720,167.61347 C716.703319,165.993785 713.307143,164.582125 709.831671,163.386885 C700.912771,160.231665 691.799492,157.647437 682.547855,155.650086 C675.324523,153.820931 669.677167,148.229372 667.812191,141.060012 L667.812191,139.17357 L665.408331,139.17357 C663.247362,139.319827 661.078877,139.319827 658.917908,139.17357 L657.139051,139.17357 C655.571661,138.786579 654.077878,138.149484 652.715948,137.287128 L650.937091,135.973783 C649.653363,134.798137 648.735719,133.281646 648.292845,131.603924 L648.292845,129.550329 L642.69185,129.550329 C636.251729,129.717866 630.20123,126.494804 626.778295,121.073281 L626.778295,119.903209 L619.10998,119.903209 C613.569538,119.847297 608.062422,119.043985 602.739691,117.515308 L600.672371,117.515308 C594.468163,116.026297 588.739935,113.012873 584.013619,108.751712 C583.972687,107.051599 584.592516,105.401143 585.744398,104.143063 L585.744398,104.119184 Z M541.112513,191.220335 C543.517567,184.915591 547.925717,179.605761 553.638749,176.13188 L554.830566,176.13188 L554.830566,174.773672 C553.511544,166.5963 558.945312,158.872708 566.99196,157.487389 L568.937783,157.487389 L568.937783,155.363646 C568.520557,153.346944 569.011032,151.246397 570.275537,149.634478 C574.393785,146.065825 579.827405,144.472911 585.185406,145.263518 C588.015241,144.960961 590.868548,144.960961 593.698382,145.263518 L596.690086,145.263518 L595.936079,142.102598 C595.488949,140.731603 595.488949,139.250801 595.936079,137.879806 C597.389916,136.532596 599.365493,135.924508 601.311415,136.225262 C608.514308,136.907043 615.565763,138.740618 622.204691,141.658094 L625.196394,142.868133 L625.196394,139.53435 C624.883323,137.966395 625.207895,136.336534 626.096337,135.015222 C627.985351,133.356849 630.476336,132.585571 632.955364,132.891479 C638.828633,133.247733 644.612567,134.522163 650.10293,136.669766 L650.856937,136.669766 C654.697291,138.778816 659.01905,139.818266 663.383173,139.682518 C665.852845,147.860687 672.08563,154.308518 680.092929,156.968801 C680.092929,156.968801 687.243829,158.623345 695.756805,161.043425 C701.138435,162.439795 706.420511,164.205407 711.566618,166.328088 L706.483155,167.241792 C694.233586,170.263744 682.179069,174.049205 670.388136,178.576654 C668.055511,178.727459 665.715798,178.727459 663.383173,178.576654 C656.864426,179.793506 650.237906,177.092759 646.357221,171.637446 L645.457277,169.167977 L643.511454,170.674353 C639.207412,174.03637 634.01957,176.029816 628.601585,176.403521 L624.880198,176.403521 C623.529132,175.941927 622.304213,175.16359 621.304748,174.13161 L619.966995,172.477066 L618.629241,173.687106 C614.148821,177.937866 608.335028,180.447601 602.211359,180.774481 C599.153648,180.771637 596.13877,180.044444 593.406509,178.650738 L592.19037,178.650738 L591.14449,179.564442 C583.911748,185.475727 575.66584,189.979858 566.821701,192.850184 L565.775821,194.208392 C561.471846,197.373092 556.12986,198.726797 550.865951,197.98668 C547.882356,198.134848 544.89876,198.134848 541.915165,197.98668 C540.778087,195.927327 540.489543,193.494906 541.112513,191.220335 Z M847.067923,545.721551 C812.200578,569.511743 778.681693,595.181361 746.174155,622.088068 C763.607827,637.932336 780.29503,654.228618 796.404322,671.262396 L797.006313,670.834172 L798.61965,669.38297 C798.61965,669.240229 798.764128,669.240229 798.764128,669.097488 C799.252518,668.690142 799.88479,668.491344 800.521642,668.544893 C801.158493,668.598441 801.747669,668.899943 802.15936,669.38297 C802.606057,670.045795 802.606057,670.908844 802.15936,671.571668 C803.28411,670.717189 804.123035,669.548524 804.567326,668.217251 C803.03107,663.970553 804.327184,659.227839 807.81808,656.322155 C808.283703,655.76549 808.826893,655.276889 809.431417,654.870953 C813.906473,651.77016 820.078497,652.840609 823.217019,657.261869 C826.355542,661.683128 825.27207,667.780957 820.797016,670.881753 C818.096388,673.239818 814.432053,674.208751 810.900276,673.498674 C809.570258,675.637648 809.245198,678.241584 810.009329,680.635731 C819.284073,692.578529 833.76154,699.443115 848.994295,699.120711 C861.108301,698.953683 872.56788,693.660927 880.466409,684.584903 C881.11649,683.819197 881.807771,683.088577 882.537259,682.396206 C889.607842,676.685038 900.014061,677.661161 905.870448,684.584903 L906.472439,682.99096 C925.374971,709.469444 886.967916,734.330195 859.95054,734.330195 C833.652179,733.948424 808.45674,723.828393 789.348982,705.972286 C786.70022,702.617869 784.53305,701.45215 781.956527,702.617869 C780.35714,703.866942 779.340234,705.704565 779.139207,707.70897 C779.444937,711.303654 778.017109,714.830314 775.286462,717.225047 C771.165446,721.14352 764.646647,721.14352 760.525631,717.225047 C760.381153,717.082306 760.236675,716.796824 760.092197,716.654082 C758.504362,714.51446 757.845383,711.837727 758.261185,709.216621 C758.676987,706.595516 760.13326,704.246319 762.307526,702.68924 C764.45602,700.60107 767.418787,699.54139 770.422371,699.786836 C769.488745,698.85893 769.488745,697.360326 770.422371,696.432419 L773.528647,693.220743 C756.239452,676.353497 738.372346,660.199956 720.216283,644.189157 C702.036141,660.199956 684.096796,676.329707 666.90392,693.220743 L670.588108,696.860642 C671.047582,697.271086 671.309758,697.854488 671.309758,698.46648 C671.309758,699.078473 671.047582,699.661875 670.588108,700.072318 L670.588108,700.21506 C673.62526,700.038846 676.605077,701.085982 678.847431,703.117463 C681.712175,705.123325 683.276172,708.486769 682.95028,711.940817 C682.624388,715.394866 680.458116,718.414767 677.26748,719.862952 C674.076843,721.311138 670.346575,720.967594 667.481832,718.961731 C666.882774,718.605042 666.339323,718.164289 665.868495,717.653271 C663.090177,715.293346 661.659556,711.737565 662.039829,708.137194 C661.78402,706.11626 660.716761,704.281725 659.078031,703.046092 C656.670065,701.880373 654.502896,703.046092 651.685576,706.40051 C632.686475,724.33384 607.503173,734.469738 581.228496,734.758419 C554.042562,734.758419 515.804065,709.873878 534.706597,683.419184 L534.562119,684.584903 C537.395106,681.264951 541.452067,679.199363 545.832729,678.846513 C550.213392,678.493662 554.555429,679.882733 557.895308,682.705478 C558.608577,683.256535 559.254991,683.887195 559.82168,684.584903 C567.718056,693.744027 579.260786,699.050826 591.438271,699.120711 C606.82885,699.888126 621.621789,693.149528 631.025229,681.087745 C631.866236,678.701124 631.537022,676.063906 630.134282,673.950687 C626.602506,674.660765 622.93817,673.691832 620.237543,671.333766 C617.342689,669.327904 615.75087,665.94859 616.061707,662.468779 C616.372545,658.988969 618.538816,655.937328 621.744507,654.46338 C624.950198,652.989432 628.708288,653.317104 631.603141,655.322967 C632.207666,655.728903 632.750855,656.217503 633.216478,656.774169 C636.707374,659.679852 638.003488,664.422567 636.467232,668.669265 C636.911523,670.000537 637.750449,671.169202 638.875198,672.023682 C638.578206,671.323618 638.578206,670.535047 638.875198,669.834984 C639.286889,669.351957 639.876065,669.050455 640.512916,668.996906 C641.149768,668.943358 641.78204,669.142156 642.27043,669.549502 C642.27043,669.692243 642.414908,669.692243 642.414908,669.834984 L644.028245,671.286186 C660.282014,654.276198 676.969217,637.979917 694.40289,622.2546 C661.911404,595.197221 628.199883,569.694135 593.268325,545.745341 C481.008959,472.138486 396.36896,479.275544 396.36896,479.275544 C459.891099,455.27124 539.642927,478.70458 576.123609,498.902453 C627.169582,527.994735 675.381845,561.690427 720.144044,599.558756 C764.906243,561.690427 813.118507,527.994735 864.16448,498.902453 C900.283967,478.680789 980.252512,455.27124 1043.63104,479.275544 C1043.94321,479.204174 959.471767,472.090906 847.067923,545.697761 L847.067923,545.721551 Z" id="Path_1" stroke="#1C5E5C" opacity="0.463936942" stroke-dasharray="2,5" mask="url(#mask-2)"></path>
                </g>
            </g>
        </g>
    </g>
</svg>